<svg xmlns="http://www.w3.org/2000/svg" viewBox="0 0 1606.33 944.55"><title>Element 1</title><g id="Ebene_2" data-name="Ebene 2"><g id="Ebene_1-2" data-name="Ebene 1"><path d="M821.57,944.55l-16.28-1.62-4-10.21c14.24-16.63,19.2-37.76,28.42-56.82q39.07-80.68,78.41-161.23l31.91-59.5,17.44-29.69,4.67-7.35,74.67-108.75q47.88-51.42,95.7-102.89c3.19-3.44,5.59-7.61,8.36-11.44-5.05,1.58-11.47,1.7-15,5-34.73,32.63-69,65.77-103.36,98.76-68,73.12-125.1,154.05-174,241l-9.74,15.61L763.24,897.07C759,894.42,752.31,892.66,751,889c-4.91-13.53-8-27.71-11.84-41.64,12.42-6.79,13-13.05,2-18.8l-5.26-10.65c4.19-23.49,10.57-46.83,12.17-70.49,5.7-84.46,24.09-165.08,64.25-240.32,31.35-58.73,68.32-113.2,115.18-160.69,14.44-14.63,32.71-27,42.44-44.29,8.71-15.43,17.7-25.58,33.78-32.06,5.76-2.32,8.82-11.53,12.92-17.73,3.18-4.82,5-11.15,9.21-14.59,35.29-28.68,70.6-57.35,106.64-85.06,111.8-86,236.66-127,378.62-109.61,11.68,1.43,24.09-3.08,36.16-4.83l59.1,23q-6.7,14.13-13.4,28.25c-49.82-12.55-95.17-9.21-131.44,31.44-16.26,18.23-32.33,36.62-49.48,54-57.1,57.94-115.3,114.81-171.61,173.49-8.56,8.92-7.29,26.73-15.08,37a514.44,514.44,0,0,1-54.59,61.71c-68.37,65.21-126,139.8-177.62,217.77-48,72.46-84.72,152.31-127.48,228.31-3,5.27-4.46,9.76-4.55,13.83Z" style="fill:#8dc33d"/><path d="M1547.23,38.2c-12.07,1.75-24.48,6.26-36.16,4.83-142-17.36-266.82,23.64-378.62,109.61-36,27.71-71.35,56.38-106.64,85.06-4.22,3.44-6,9.77-9.21,14.59-4.1,6.2-7.16,15.41-12.92,17.73-16.08,6.48-25.07,16.63-33.78,32.06-9.73,17.25-28,29.66-42.44,44.29-46.86,47.49-83.83,102-115.18,160.69C772.12,582.3,753.73,662.92,748,747.38c-1.6,23.66-8,47-12.16,70.49q-6.29-30.76-12.56-61.52L722.37,745c1.72-53.91-3.39-108.37,13.37-161l2.28-9.63,1.47-10c10.42-16.62,23.19-32.23,30.86-50,55.59-129,135.34-239.22,243.42-330C1117.69,97,1235.8,42.82,1368.3,17.49a21.54,21.54,0,0,0,6.12-2.28l56.17-6.31Z" style="fill:#83ba3a"/><path d="M901.81,918l-33.29,4.34c-8.67-8.45-9.94-16.61-2.89-29.14,42.76-76,79.51-155.85,127.48-228.31,51.62-78,109.25-152.56,177.62-217.77a514.44,514.44,0,0,0,54.59-61.71c7.79-10.29,6.52-28.1,15.08-37,56.31-58.68,114.51-115.55,171.61-173.49,17.15-17.4,33.22-35.79,49.48-54,36.27-40.65,81.62-44,131.44-31.44-15.32,46.86-30.31,93.83-46.13,140.51-5.39,15.88-12.87,31-19.4,46.54-5.52,1.4-12.58,1.1-16.29,4.48-18.25,16.65-35.77,34.12-53.26,51.59Q1197,593.36,936.76,854.81C920.46,871.28,914.21,897.69,901.81,918Z" style="fill:#97ca3e"/><path d="M905.08,912.3c10.36-19.36,16.88-42.53,31.68-57.49q259.46-262.2,521.09-522.23c17.49-17.47,35-34.94,53.26-51.59,3.71-3.38,10.77-3.08,16.29-4.48-10.75,32.65-20.49,65.67-32.56,97.83-10,26.53-22.67,52-34.16,78-12.06,17.68-24.8,34.95-36.09,53.11-110.95,178.52-266.91,302.72-460.12,382.15C944.64,895.72,924.87,904.05,905.08,912.3Z" style="fill:#9cce41"/><path d="M611.42,252.13l102.15,105c-16.61-7.06-34-12.66-49.64-21.5-25.82-14.63-45.16-16.07-66.81,3.42-35.87,32.3-69,67.64-105.23,99.54-25.91,22.83-39.84,48.08-32.21,82.87l-65-59c-2.26-7.77-3.76-15.89-7.17-23.12-1.34-2.84-6.84-4-10.68-5.06-.52-.15-4,5.19-3.46,7.24,7.57,27.41-13.82,28.82-30.48,35.19-5.91,2.26-11.49,6.42-16.09,10.87-24.71,23.86-48.54,48.64-73.68,72-28.87,26.84-56.09,53.27-36.44,98.3,1.68,3.86-5.33,11.52-8.3,17.41l-57.13-60.51a7.48,7.48,0,0,0,.53-4.15C143.5,576.8,137,542.4,126.34,509.35c-7-21.62-5.81-39.75,8.92-56,16.2-17.86,33.6-34.65,50.91-51.46,32.76-31.8,66.39-62.73,98.63-95.06,33.43-33.51,64.6-69.34,99-101.77,10.25-9.67,28.55-16.71,42.3-15.46,23.57,2.14,46.45,11.79,69.63,18.24q40.8,11.35,81.63,22.64a10.71,10.71,0,0,1,4.39,1l6,4.77Z" style="fill:#74b439"/><path d="M577.37,230.49q-40.82-11.31-81.63-22.64c-23.18-6.45-46.06-16.1-69.63-18.24-13.75-1.25-32.05,5.79-42.3,15.46-34.41,32.43-65.58,68.26-99,101.77-32.24,32.33-65.87,63.26-98.63,95.06-17.31,16.81-34.71,33.6-50.91,51.46-14.73,16.24-15.9,34.37-8.92,56,10.33,32,16.74,65.29,24.64,98.08l-3.78,1.81-11.13-14.68L132,589l-9.66-9.71-43.2-75,3.28-2.64-3.77-1.3s.7.24.71.23c-3.91-13.5-8.73-26.81-11.6-40.52-18.26-87.44-39-175.11-26.18-265.11,6.21-43.5,19.16-86.23,31.52-128.58,6.19-21.2,24-26.55,44.84-19.49C186.24,70,254.29,93.79,322.8,116.17c52.48,17.15,105.53,32.55,158.32,48.72Z" style="fill:#6caf37"/><path d="M506,589.58c58.26,43.49,116.64,86.85,174.56,130.8,3.93,3,4.48,10.4,6.6,15.76-26.28-10.65-52.18-22.36-78.92-31.67-29.5-10.27-59.38-24.56-86.57,7.87-21.77,26-46.27,49.7-70.2,73.79-12.17,12.24-13.62,21.31,2.4,31.59,6.9,4.43,11.12,13.06,16.56,19.78-64.62-19.35-122.58-51.62-176.92-90.94-.42-12.85-1.6-25.73-1-38.52.44-9.29.1-21.31,5.48-27.21,26.94-29.5,56.47-56.65,83.51-86.07,23.82-25.93,50.71-27.43,81.48-16.58C476.9,583.09,491.61,585.84,506,589.58Z" style="fill:#80bb3b"/><path d="M470.41,837.5c-5.44-6.72-9.66-15.35-16.56-19.78-16-10.28-14.57-19.35-2.4-31.59,23.93-24.09,48.43-47.82,70.2-73.79,27.19-32.43,57.07-18.14,86.57-7.87,26.74,9.31,52.64,21,78.92,31.67,4.7,43,9.78,85.89,13.45,128.94.33,3.77-8.08,11.21-13.17,12-15,2.24-30.45.86-45.63,1.63l-11.24-.78c-12.77-2.74-25.49-5.73-38.33-8.1-22-4-44.11-7.67-66.17-11.48Z" style="fill:#8ac23d"/><path d="M506,589.58c-14.37-3.74-29.08-6.49-43-11.4-30.77-10.85-57.66-9.35-81.48,16.58-27,29.42-56.57,56.57-83.51,86.07-5.38,5.9-5,17.92-5.48,27.21-.6,12.79.58,25.67,1,38.52l-85.13-71.27c3-5.89,10-13.55,8.3-17.41-19.65-45,7.57-71.46,36.44-98.3,25.14-23.39,49-48.17,73.68-72,4.6-4.45,10.18-8.61,16.09-10.87,16.66-6.37,38.05-7.78,30.48-35.19-.56-2.05,2.94-7.39,3.46-7.24,3.84,1.06,9.34,2.22,10.68,5.06,3.41,7.23,4.91,15.35,7.17,23.12.76,3.76.23,8.72,2.45,11.11C433.19,512.41,469.62,551,506,589.58Z" style="fill:#78b63a"/><path d="M739.49,564.31c14.07-46.06,25.12-93.33,42.79-138,49.86-125.91,134.17-225.22,243.56-304,2.63-1.89,4.46-4.89,6.66-7.38,24.08-13.65,47.1-29.84,72.47-40.37,44.37-18.43,89.33-36.62,135.65-48.85,43.78-11.55,89.61-15.4,134.58-22.35,4.87-.76,10,.4,15.07.67-7.3,4.6-14.08,11.88-22,13.38C1235.8,42.82,1117.69,97,1013.77,184.29c-108.08,90.76-187.83,201-243.42,330C762.68,532.08,749.91,547.69,739.49,564.31Z" style="fill:#7db33b"/><path d="M132,589l4,5.54Z" style="fill:#f6f6f5"/><path d="M147.2,609.24c1.54.41,3.06.87,4.56,1.39a7.48,7.48,0,0,1-.53,4.15Z" style="fill:#f6f6f5"/><path d="M739.13,847.32l-.9-20.18C752.11,833.26,752.56,840,739.13,847.32Z" style="fill:#83ba3a"/><path d="M735.57,584.52q1.23-5.09,2.45-10.18Q736.79,579.44,735.57,584.52Z" style="fill:#7db33b"/><path d="M459.68,521.47c-7.63-34.79,6.3-60,32.21-82.87,36.2-31.9,69.36-67.24,105.23-99.54,21.65-19.49,41-18.05,66.81-3.42,15.6,8.84,33,14.44,49.64,21.5,23.34,20.45,33.28,40.07,22,75.38-19.16,59.82-28.39,122.84-41.38,184.63A56.44,56.44,0,0,0,693,627.59c-1.17,52.92-1.78,56.07-44.6,27.6C584.2,612.51,522.45,566.22,459.68,521.47Z" style="fill:#80bb3b"/><path d="M4.57,281.31C-6.37,201.26,2.3,123.64,30.82,47.79,50.43-4.38,50.26-7.88,101.53,9.14q125.76,41.78,248.93,91.21c45,18,87.2,42.81,130.66,64.54-52.79-16.17-105.84-31.57-158.32-48.72C254.29,93.79,186.24,70,118,46.86,97.16,39.8,79.33,45.15,73.14,66.35,60.78,108.7,47.83,151.43,41.62,194.93,28.77,284.93,49.54,372.6,67.8,460c2.87,13.71,7.69,27,11.6,40.52-19.6-45.91-41-91.18-58.06-138C12,336.83,9.92,308.47,4.57,281.31Z" style="fill:#65a634"/><path d="M78.69,500.33l3.77,1.3-3.28,2.64A3.66,3.66,0,0,1,78.69,500.33Z" style="fill:#65a634"/><path d="M581.76,231.45l6,4.77Z" style="fill:#6caf37"/></g></g></svg>